<svg id="visual" viewBox="0 0 900 600" width="900" height="600" xmlns="http://www.w3.org/2000/svg" xmlns:xlink="http://www.w3.org/1999/xlink" version="1.1"><rect x="0" y="0" width="900" height="600" fill="#fff"></rect><defs><linearGradient id="grad1_0" x1="33.3%" y1="0%" x2="100%" y2="100%"><stop offset="20%" stop-color="#ffffff" stop-opacity="1"></stop><stop offset="80%" stop-color="#ffffff" stop-opacity="1"></stop></linearGradient></defs><defs><linearGradient id="grad2_0" x1="0%" y1="0%" x2="66.7%" y2="100%"><stop offset="20%" stop-color="#ffffff" stop-opacity="1"></stop><stop offset="80%" stop-color="#ffffff" stop-opacity="1"></stop></linearGradient></defs><g transform="translate(900, 0)"><path d="M0 486.7C-106.6 486.4 -213.1 486 -243.4 421.5C-273.6 357.1 -227.6 228.4 -255.5 147.5C-283.3 66.6 -385 33.3 -486.7 0L0 0Z" fill="#88c6f8"></path></g><g transform="translate(0, 600)"><path d="M0 -486.7C107 -486.7 214 -486.6 243.4 -421.5C272.7 -356.5 224.4 -226.6 252 -145.5C279.6 -64.4 383.2 -32.2 486.7 0L0 0Z" fill="#88c6f8"></path></g></svg>