<svg id="visual" viewBox="0 0 900 600" width="900" height="600" xmlns="http://www.w3.org/2000/svg" xmlns:xlink="http://www.w3.org/1999/xlink" version="1.1"><g stroke-width="1" stroke-linejoin="bevel"><path d="M450 300L450 150L300 150Z" fill="#041623" stroke="#041623"></path><path d="M300 150L300 300L450 300Z" fill="#0d3151" stroke="#0d3151"></path><path d="M300 300L300 450L450 300Z" fill="#0b2d49" stroke="#0b2d49"></path><path d="M450 450L600 300L450 300Z" fill="#071f32" stroke="#071f32"></path><path d="M450 300L600 300L450 150Z" fill="#103659" stroke="#103659"></path><path d="M300 150L150 300L300 300Z" fill="#0b2d49" stroke="#0b2d49"></path><path d="M300 300L150 300L300 450Z" fill="#00101c" stroke="#00101c"></path><path d="M600 300L600 150L450 150Z" fill="#071f32" stroke="#071f32"></path><path d="M300 450L450 450L450 300Z" fill="#164069" stroke="#164069"></path><path d="M300 150L150 150L150 300Z" fill="#082339" stroke="#082339"></path><path d="M600 150L450 0L450 150Z" fill="#0d3151" stroke="#0d3151"></path><path d="M450 150L450 0L300 150Z" fill="#092841" stroke="#092841"></path><path d="M300 150L300 0L150 150Z" fill="#133b61" stroke="#133b61"></path><path d="M450 0L300 0L300 150Z" fill="#164069" stroke="#164069"></path><path d="M450 450L600 450L600 300Z" fill="#041623" stroke="#041623"></path><path d="M600 150L600 0L450 0Z" fill="#061a2a" stroke="#061a2a"></path><path d="M300 0L150 0L150 150Z" fill="#071f32" stroke="#071f32"></path><path d="M150 300L150 450L300 450Z" fill="#164069" stroke="#164069"></path><path d="M150 0L0 150L150 150Z" fill="#133b61" stroke="#133b61"></path><path d="M150 150L0 150L150 300Z" fill="#0d3151" stroke="#0d3151"></path><path d="M150 300L0 300L150 450Z" fill="#133b61" stroke="#133b61"></path><path d="M300 450L450 600L450 450Z" fill="#092841" stroke="#092841"></path><path d="M450 450L450 600L600 450Z" fill="#061a2a" stroke="#061a2a"></path><path d="M300 600L450 600L300 450Z" fill="#103659" stroke="#103659"></path><path d="M150 450L300 600L300 450Z" fill="#082339" stroke="#082339"></path><path d="M0 150L0 300L150 300Z" fill="#061a2a" stroke="#061a2a"></path><path d="M600 450L750 300L600 300Z" fill="#133b61" stroke="#133b61"></path><path d="M600 300L750 300L600 150Z" fill="#041623" stroke="#041623"></path><path d="M600 150L750 150L600 0Z" fill="#041623" stroke="#041623"></path><path d="M750 300L750 150L600 150Z" fill="#0b2d49" stroke="#0b2d49"></path><path d="M600 450L750 450L750 300Z" fill="#103659" stroke="#103659"></path><path d="M450 600L600 600L600 450Z" fill="#061a2a" stroke="#061a2a"></path><path d="M0 450L150 600L150 450Z" fill="#133b61" stroke="#133b61"></path><path d="M150 450L150 600L300 600Z" fill="#061a2a" stroke="#061a2a"></path><path d="M600 600L750 450L600 450Z" fill="#00101c" stroke="#00101c"></path><path d="M150 0L0 0L0 150Z" fill="#082339" stroke="#082339"></path><path d="M0 300L0 450L150 450Z" fill="#041623" stroke="#041623"></path><path d="M750 150L750 0L600 0Z" fill="#164069" stroke="#164069"></path><path d="M0 450L0 600L150 600Z" fill="#041623" stroke="#041623"></path><path d="M750 450L900 300L750 300Z" fill="#164069" stroke="#164069"></path><path d="M750 300L900 300L750 150Z" fill="#041623" stroke="#041623"></path><path d="M750 150L900 150L750 0Z" fill="#0d3151" stroke="#0d3151"></path><path d="M900 300L900 150L750 150Z" fill="#0d3151" stroke="#0d3151"></path><path d="M750 450L900 450L900 300Z" fill="#0d3151" stroke="#0d3151"></path><path d="M600 600L750 600L750 450Z" fill="#071f32" stroke="#071f32"></path><path d="M750 600L900 450L750 450Z" fill="#0d3151" stroke="#0d3151"></path><path d="M900 150L900 0L750 0Z" fill="#082339" stroke="#082339"></path><path d="M750 600L900 600L900 450Z" fill="#164069" stroke="#164069"></path></g></svg>