<svg xmlns="http://www.w3.org/2000/svg" data-name="Layer 1" viewBox="0 0 512 512"><path fill="#ffcd85" d="M419.42828,435.27761V404.30716a41.67806,41.67806,0,0,1,10.076-27.16088l68.71045-79.98146a31.92814,31.92814,0,0,0,6.37934-29.99038l-39.632-132.11673a16.40759,16.40759,0,0,0-15.73094-11.66558h0A16.37284,16.37284,0,0,0,432.852,140.84427l7.97563,116.43041-55.27113,66.78446L346.81822,435.27761Z"/><path fill="#ffcd85" d="M400.24915,312.04481,437.876,274.936a29.45931,29.45931,0,0,0,.27065-41.67912l-.51988-.52622a11.684,11.684,0,0,0-16.375-.24406L353.43138,297.1595a70.863,70.863,0,0,0-21.99149,51.28428v89.31731l66.00834-15.78817Z"/><path fill="#ffc166" d="M414.48884,298.00117l23.39187-23.06981a29.45277,29.45277,0,0,0,.266-41.67452l-.52213-.52826a11.68363,11.68363,0,0,0-16.37289-.242l-2.02222,1.92847a29.45913,29.45913,0,0,1-1.35351,40.521l-37.627,37.10888h0A48.76158,48.76158,0,0,0,414.48884,298.00117Z"/><path fill="#66c1ff" d="M317.47059,512V434.70622a20.94586,20.94586,0,0,1,20.99465-20.89672h73.34891a20.94585,20.94585,0,0,1,20.99465,20.89672V512Z"/><path fill="#ffcd85" d="M94.01188,435.27761V404.30716a41.678,41.678,0,0,0-10.076-27.16088L15.22542,297.16482a31.92812,31.92812,0,0,1-6.37935-29.99038l39.632-132.11673A16.40759,16.40759,0,0,1,64.209,123.39213h0a16.37285,16.37285,0,0,1,16.37914,17.45214L72.61257,257.27468l55.27113,66.78446,38.73824,111.21847Z"/><path fill="#ffcd85" d="M113.191,312.04481,75.56415,274.936a29.4593,29.4593,0,0,1-.27066-41.67912l.51988-.52622a11.684,11.684,0,0,1,16.375-.24406l67.82038,64.67289a70.863,70.863,0,0,1,21.99148,51.28428v89.31731l-66.00834-15.78817Z"/><path fill="#ffc166" d="M98.95133,298.00117,75.55945,274.93136a29.45277,29.45277,0,0,1-.266-41.67452l.52213-.52826a11.68363,11.68363,0,0,1,16.37289-.242l2.02222,1.92847a29.45912,29.45912,0,0,0,1.35352,40.521l37.62695,37.10888h0A48.76155,48.76155,0,0,1,98.95133,298.00117Z"/><path fill="#66c1ff" d="M195.96957,512V434.70622a20.94585,20.94585,0,0,0-20.99465-20.89672H101.626a20.94586,20.94586,0,0,0-20.99465,20.89672V512Z"/><path fill="#ff7070" d="M380.27,131.25H256v-57l31.68994-16.39014a37.50813,37.50813,0,0,1,45.65015,8.83008l49.96,57.9502A3.9985,3.9985,0,0,1,380.27,131.25Z"/><path fill="#ff4e4e" d="M383.30005,124.64014l-49.96-57.9502a37.51554,37.51554,0,0,0-38.4187-11.66577,37.42776,37.42776,0,0,1,18.4187,11.66577l49.96,57.9502a3.9985,3.9985,0,0,1-3.03,6.60986h20A3.9985,3.9985,0,0,0,383.30005,124.64014Z"/><path fill="#ff7070" d="M256,74.25v57H131.73a3.9985,3.9985,0,0,1-3.03-6.60986l49.96-57.9502a37.50813,37.50813,0,0,1,45.65015-8.83008Z"/><path fill="#ff4e4e" d="M343.62988 131.25h-29.77A56.746 56.746 0 0 1 299.78 119.97 57.59525 57.59525 0 0 1 288.89014 102.28a7.49941 7.49941 0 0 1 13.96972-5.46 42.61471 42.61471 0 0 0 8.05 13.08984c8.90015 9.84009 20.37012 12.96021 26.41016 13.94019A7.50618 7.50618 0 0 1 343.62988 131.25zM223.10986 102.28A57.59525 57.59525 0 0 1 212.22 119.97a56.746 56.746 0 0 1-14.07983 11.28h-29.77a7.50618 7.50618 0 0 1 6.30981-7.3999c6.04-.98 17.51-4.1001 26.41016-13.94019a42.61471 42.61471 0 0 0 8.05-13.08984 7.49941 7.49941 0 0 1 13.96972 5.46z"/><circle cx="256" cy="25" r="17.5" fill="#676e87"/><path fill="#313440" d="M435.18945,382.03711l68.708-79.98731a39.25565,39.25565,0,0,0,7.876-37.03515L472.14551,132.91016a23.92734,23.92734,0,0,0-46.83594,6.80957c0,.56054.01758,1.12109.05762,1.63281l5.522,80.52441a19.14626,19.14626,0,0,0-14.81494,5.18555l-67.82031,64.66992a78.73031,78.73031,0,0,0-24.31348,56.708v61.84839a28.38668,28.38668,0,0,0-13.96973,24.41723V504.5a7.5,7.5,0,0,0,15,0V452.75H425.30859V504.5a7.5,7.5,0,0,0,15,0V434.70605a28.37464,28.37464,0,0,0-13.3789-24.05517v-6.34131A34.2106,34.2106,0,0,1,435.18945,382.03711ZM425.30859,437.75H324.9707v-3.04395a13.46106,13.46106,0,0,1,13.49414-13.39648h73.34961a13.46106,13.46106,0,0,1,13.49414,13.39648Zm-1.499-65.48535a49.21775,49.21775,0,0,0-11.87988,32.04492v2.00293c-.03858-.00024-.07666-.00293-.11524-.00293h-72.874V348.44043a63.66639,63.66639,0,0,1,19.665-45.85254L426.42871,237.916a4.19929,4.19929,0,0,1,5.85352.07324l.55859.56738q.31786.31934.61426.65039c.06445.0791.13183.1582.20019.23535a21.93679,21.93679,0,0,1-1.041,30.15723l-37.62988,37.09961a7.50007,7.50007,0,0,0,10.53124,10.68164l37.63184-37.10156a36.93868,36.93868,0,0,0,3.44238-48.69532l-6.26269-91.32128c-.01367-.1836-.01758-.36329-.01758-.543a8.92752,8.92752,0,0,1,17.4668-2.50489L497.40625,269.3252a24.32345,24.32345,0,0,1-4.88574,22.94824ZM189.5,410.28931V347a78.73788,78.73788,0,0,0-24.31445-56.708L97.36816,225.624a19.13682,19.13682,0,0,0-14.81811-5.18335l5.51636-80.44555c.043-.53907.06347-1.09961.06347-1.71485a23.92666,23.92666,0,0,0-46.833-6.81543L1.666,263.5752a39.25072,39.25072,0,0,0,7.875,37.03125L78.25,380.5957a34.21766,34.21766,0,0,1,8.25977,22.27442v7.78149a28.37424,28.37424,0,0,0-13.37793,24.05444V504.5a7.5,7.5,0,0,0,15,0V452.75H188.46973V504.5a7.5,7.5,0,0,0,15,0V434.70605A28.38669,28.38669,0,0,0,189.5,410.28931ZM20.917,290.83008a24.32122,24.32122,0,0,1-4.88379-22.94434L55.666,135.76855a8.927,8.927,0,0,1,17.46386,2.51172c0,.17383-.00195.34668-.02246.60743L66.8501,230.13477A36.94824,36.94824,0,0,0,70.294,278.84082l37.63085,37.09961a7.50008,7.50008,0,1,0,10.53125-10.68164l-37.6289-37.09766a21.94964,21.94964,0,0,1-1.02832-30.18457c.25586-.291.51758-.57617.84863-.90722l.49414-.50586a4.21449,4.21449,0,0,1,5.87305-.08594L154.833,301.14648A63.66771,63.66771,0,0,1,174.5,347v59.30957H101.626c-.03907,0-.07715.00269-.11621.00293v-3.44238a49.22664,49.22664,0,0,0-11.87989-32.04688ZM188.46973,437.75H88.13184v-3.04395A13.46106,13.46106,0,0,1,101.626,421.30957h73.34863a13.46127,13.46127,0,0,1,13.49512,13.39648ZM280.7373,272.79077c23.471-7.21435,42.17139-14.70459,45.55274-28.69214a17.17845,17.17845,0,0,0-2.28418-13.59375c-5.0957-7.95825-16.90283-13.21-32.407-17.499,25.35864-5.96,44.50415-13.32813,48.21167-27.5293a15.76986,15.76986,0,0,0-1.80274-12.417c-4.69922-7.75879-15.82226-13.16895-37.19531-18.08887a7.49978,7.49978,0,0,0-3.36523,14.61719c21.94238,5.05176,26.70214,9.54492,27.73046,11.24219a.85363.85363,0,0,1,.11915.85742c-.46485,1.78027-3.33887,6.50977-19.95215,11.97461-11.71,3.85132-26.83057,6.97314-41.84473,9.94629V138.752h72.61865l.01221.001.02173-.001h44.11792a11.49944,11.49944,0,0,0,8.71-19.00879L339.02344,61.793A44.87178,44.87178,0,0,0,284.24121,51.2002L263.5,61.92847V48.84912a25,25,0,1,0-15,0V61.92847L227.75879,51.2002A44.87335,44.87335,0,0,0,172.97656,61.793l-49.957,57.95019a11.49944,11.49944,0,0,0,8.71,19.00879h44.11792l.02173.001.01221-.001H248.5V203.6084c-15.01416-2.97315-30.13477-6.095-41.84473-9.94629-16.61328-5.46484-19.4873-10.19434-19.95215-11.97559a.85217.85217,0,0,1,.11915-.85644c1.02832-1.69727,5.78711-6.18946,27.72558-11.24121a7.49978,7.49978,0,1,0-3.36523-14.61719c-21.37012,4.91992-32.49219,10.33008-37.19043,18.08887a15.76811,15.76811,0,0,0-1.80274,12.416c3.70752,14.20117,22.853,21.56934,48.21167,27.5293-15.50415,4.28906-27.31128,9.54077-32.407,17.499A17.17845,17.17845,0,0,0,185.71,244.09863c3.38135,13.98755,22.08179,21.47779,45.55274,28.69214-11.25293,4.54175-19.80713,9.779-23.667,16.94751a17.71959,17.71959,0,0,0-1.34082,13.86035c3.48,11.38721,15.92505,18.53638,30.7793,25.02637-15.41162,7.75244-27.366,17.61743-23.8584,33.18945a7.49981,7.49981,0,0,0,14.63281-3.29687c-1.523-6.76026,7.227-12.5752,20.69141-18.72388V360.166a7.5,7.5,0,0,0,15,0V339.7937c13.46436,6.14868,22.21436,11.96362,20.69141,18.72388a7.49981,7.49981,0,1,0,14.63281,3.29687c3.50757-15.572-8.44678-25.437-23.8584-33.18945,14.85425-6.49,27.29932-13.63916,30.7793-25.02637a17.71959,17.71959,0,0,0-1.34082-13.86035C300.54443,282.56982,291.99023,277.33252,280.7373,272.79077ZM248.5,317.19653c-12.68213-5.28906-25.91992-11.50366-27.89941-17.98071a2.70886,2.70886,0,0,1,.20214-2.36523c2.751-5.10962,14.4917-9.95679,27.69727-14.29541Zm0-54.91186c-12.13672-3.574-24.67651-7.26929-34.06543-11.395-11.76562-5.16992-13.81152-8.93653-14.14453-10.31641a2.22124,2.22124,0,0,1,.33691-1.98047c4.4209-6.90527,26.34546-12.27343,47.87305-16.69824Zm0-138.53272H208.42432c1.28906-1.17749,2.56128-2.42187,3.79345-3.78515a57.45313,57.45313,0,0,0,10.88965-17.68555,7.5,7.5,0,1,0-13.9707-5.46094,42.51225,42.51225,0,0,1-8.04785,13.08887c-8.63867,9.55884-19.69361,12.7666-25.863,13.84277H139.36816l44.96973-52.16406a29.92171,29.92171,0,0,1,36.53027-7.06445L248.5,78.81665Zm62.873,114.84082a2.22124,2.22124,0,0,1,.33691,1.98047c-.333,1.37988-2.37891,5.14649-14.14453,10.31641-9.38892,4.12573-21.92871,7.821-34.06543,11.395V221.89453C285.02759,226.31934,306.95215,231.6875,311.37305,238.59277ZM291.13184,64.52441a29.921,29.921,0,0,1,36.53027,7.06348L372.63184,123.752H336.77417c-6.16943-1.07617-17.22437-4.28393-25.863-13.84179a42.52847,42.52847,0,0,1-8.04785-13.08985,7.5,7.5,0,1,0-13.9707,5.46094,57.46915,57.46915,0,0,0,10.88965,17.68652c1.23193,1.363,2.5039,2.60694,3.79272,3.78418H263.5V78.81689ZM256,35a10,10,0,1,1,10-10A10.01177,10.01177,0,0,1,256,35Zm35.39941,264.21582c-1.97949,6.47705-15.21728,12.69165-27.89941,17.98071V282.55518c13.20557,4.33862,24.94629,9.18579,27.69727,14.29541A2.70886,2.70886,0,0,1,291.39941,299.21582Z"/></svg>