<svg xmlns="http://www.w3.org/2000/svg" width="32" height="32" viewBox="0 0 32 32"><g transform="translate(59.512 -1215.368)"><path fill="#cdd7e0" stroke="#373449" stroke-linecap="round" stroke-linejoin="round" d="m -36.31798,1242.4199 c 0.5858,0.5858 1.53556,0.5857 2.12135,-1e-4 0.58579,0.5858 1.53555,0.5858 2.12128,1e-4 0.30416,-0.3042 0.45359,-0.7065 0.442,-1.1049 0.55385,0.2551 1.22289,0.1471 1.67933,-0.3093 0.58577,-0.5858 0.58578,-1.5355 4e-5,-2.1214 -0.13909,-0.1392 -0.31559,-0.2365 -0.48607,-0.3095 0.3428,-0.5757 0.27453,-1.3165 -0.22098,-1.8119 -0.13908,-0.1392 -0.31557,-0.2365 -0.48605,-0.3095 0.34279,-0.5758 0.27447,-1.3165 -0.22098,-1.812 -0.5858,-0.5858 -1.53556,-0.5857 -2.12135,10e-5 -0.13908,0.1391 -0.23628,0.3156 -0.30932,0.4861 -0.57523,-0.3436 -1.31649,-0.2745 -1.81194,0.221 -0.13908,0.1391 -0.23628,0.3156 -0.30942,0.4861 -0.57522,-0.3437 -1.31647,-0.2745 -1.81194,0.2209 -0.58577,0.5858 -0.58578,1.5355 -4e-5,2.1214 0.13909,0.1392 0.31559,0.2365 0.48607,0.3095 -0.3428,0.5757 -0.27453,1.3165 0.22098,1.8119 0.13908,0.1392 0.31557,0.2365 0.48605,0.3095 -0.34279,0.5758 -0.27447,1.3165 0.22098,1.812 z"/><path fill="#ffdc7b" d="m -52.45581,1222.8735 c 0,0 0,1.4755 0,2 0,1.8634 -5.030326,-0.4535 -5.030326,3.5 0,6.347 0,14.4887 0,14.4887 l 17.031246,0 c 0,0 0,-9.0545 0,-14.4722 0,-4.0546 -4.97319,-1.8168 -4.97319,-3.5165 0,-0.814 0,-2 0,-2 z"/><path fill="#fff099" d="m -52.46875,202.5 0,2 c 0,1.8634 -5.03125,-0.4535 -5.03125,3.5 l 0,14.5 1.5,0 0,-13.5 c 0,-3.9535 5.03125,-2.1366 5.03125,-4 l 0,-2.5 z" transform="translate(0 1020.362)"/><path fill="#f9c441" d="m -45.48614,1222.8622 0,2 c 0,1.8634 5.03125,-0.4535 5.03125,3.5 l 0,14.5 -1.5,0 0,-13.5 c 0,-3.9535 -5.03125,-2.1366 -5.03125,-4 l 0,-2.5 z"/><rect width="10.974" height="3.016" x="-54.483" y="1219.873" fill="#cdd7e0"/><path fill="none" stroke="#373449" stroke-linecap="round" stroke-linejoin="round" d="m -57.5,1228.8735 17.02773,0"/><path fill="#ffb68f" d="m -57.5,1234.3309 0,8.5313 17.03125,0 0,-8.5"/><path fill="#ff5855" stroke="#373449" stroke-linecap="round" stroke-linejoin="round" d="m -50.48614,1231.9212 0,2.4688 -2.5,0 0,3.0312 2.5,0 0,2.4688 3.03125,0 0,-2.4688 2.46875,0 0,-3.0312 -2.46875,0 0,-2.4688 -3.03125,0 z"/><path fill="#ffc48f" d="m -57.5,213.96875 0,8.53125 1.5,0 0,-8.53125 -1.5,0 z" transform="translate(0 1020.362)"/><path fill="#ff9e8f" d="m -41.96875,1234.331 0,8.5312 1.5,0 0,-8.5312 -1.5,0 z"/><path fill="none" stroke="#373449" stroke-linecap="round" stroke-linejoin="round" d="m -52.45581,1222.8735 c 0,0 0,1.4755 0,2 0,1.8634 -5.030326,-0.4535 -5.030326,3.5 0,6.347 0,14.4887 0,14.4887 l 17.031246,0 c 0,0 0,-9.0545 0,-14.4722 0,-4.0546 -4.97319,-1.8168 -4.97319,-3.5165 0,-0.814 0,-2 0,-2 z"/><path fill="#e5f1fa" d="m -54.46875,199.5 0,3.03125 1.46875,0 0,-3.03125 -1.46875,0 z" transform="translate(0 1020.362)"/><path fill="#e5f1fa" d="m -52,1219.8622 0,3.0313 1,0 0,-3.0313 z"/><rect width="10.974" height="3.016" x="-54.483" y="1219.873" fill="none" stroke="#373449" stroke-linecap="round" stroke-linejoin="round"/><path fill="none" stroke="#e5f1fa" stroke-linecap="round" stroke-linejoin="round" d="M-31.539971 1239.0182c.126724-.4464-.05243-.93-.472746-1.1727-.3066-.1765-.665074-.18-.962499-.04M-34.697637 1239.8622c-.126724.4464.05243.93.472746 1.1727.3066.1765.665074.18.962499.04M-34.374053 1236.6852c-.402847-.2303-.915302-.1726-1.251893.177"/></g></svg>